<svg width="30" height="30" viewBox="0 0 30 30" fill="none" xmlns="http://www.w3.org/2000/svg">
<path d="M12.665 0.15252C7.70472 0.953657 3.49449 4.14116 1.38086 8.72638C0.306995 11.0275 0.085404 12.1355 0.102449 15.0843C0.119495 17.3343 0.170631 17.8116 0.579722 19.1412C2.1479 24.34 6.1195 28.1582 11.3525 29.4877C13.1763 29.965 16.5854 29.965 18.5286 29.4877C23.9661 28.1923 28.4149 23.6241 29.557 18.1696L29.7956 17.0446H28.1252H26.4718L26.182 18.1014C25.1763 21.7321 22.1763 24.8684 18.5797 26.0787C17.0115 26.6071 14.1309 26.7264 12.3752 26.3343C5.11381 24.7321 1.19336 16.6355 4.432 9.9707C5.91495 6.91957 8.28427 4.85707 11.5059 3.80025C13.2445 3.23775 16.1422 3.16957 17.8979 3.64684C21.5968 4.65252 24.8865 7.75479 25.9945 11.2832C26.2331 12.0162 26.4206 12.7491 26.4206 12.8855C26.4206 13.073 26.7445 13.1241 28.1081 13.1241H29.8127L29.7104 12.4764C29.5399 11.3684 28.7899 9.15252 28.1934 8.01048C27.3581 6.4082 25.7388 4.44798 24.3411 3.32298C22.824 2.12979 20.574 0.970702 18.8013 0.510475C17.3184 0.11843 14.0968 -0.0690705 12.665 0.15252Z" fill="white"/>
<path d="M11.9324 9.46024C11.9324 11.3864 11.9324 11.4205 11.5574 11.4205C11.3358 11.4205 10.6881 11.5739 10.0915 11.7443C6.56307 12.8182 5.47216 15.1534 7.61989 17.0284C9.10284 18.3409 11.8472 19.0227 15.0006 18.8693C18.8699 18.6648 21.4608 17.4546 21.9722 15.5796C22.5347 13.5682 20.1312 11.7273 16.3301 11.3012L15.0006 11.1477V14.0966V17.0455H15.4949C16.5347 17.0455 16.5347 17.0284 16.5347 14.7273C16.5347 13.5682 16.6028 12.6137 16.6881 12.6137C16.7733 12.6137 17.3017 12.75 17.8812 12.9375C19.3472 13.3977 20.3699 14.0284 20.6256 14.6591C20.8131 15.1364 20.8131 15.2386 20.5062 15.6477C19.1085 17.5398 13.9949 18.2216 10.296 17.0114C9.03466 16.6023 7.84148 15.6648 7.84148 15.1023C7.84148 14.0796 9.40966 13.1421 11.9153 12.6648L13.4665 12.375V9.93751V7.50001H12.6994H11.9324V9.46024Z" fill="white"/>
<path d="M15.733 19.5494L15 19.6175V21.663V23.6914H15.767H16.5341V21.5607C16.5341 20.3846 16.517 19.4471 16.5 19.4641C16.4659 19.4812 16.125 19.5153 15.733 19.5494Z" fill="white"/>
</svg>
